#!OML:ASF E:/inclinewalkrobotboard/Project1/Captureday1/Session1/subject1.ASF
:FULLY-SPECIFIED
:DEGREES
126
root 0 0 0 2.773898076095715 -4.238812449307962 2.1925081530992063
lowerback 11.956704812143357 1.1369854277354274 -0.135923441391535
upperback -4.18524973844409 1.4601970221817906 -0.7736559003595481
thorax -11.158178412596282 0.6709856373001573 -1.051892842391636
lowerneck -6.996665860426807 1.3404898271461565 4.288540301592137
upperneck 18.91295389929184 2.7746303557534366 -8.072197459224169
head 7.073837076753463 0.9596201771213616 -3.1325717731409917
rclavicle -1.5112008907258753E-15 -9.924536207690667E-16
rhumerus 18.01406586577916 14.10921130527502 -51.8066261430007
rradius 69.37142713180997
rwrist 23.280505190857994
rhand -32.97513402831797 -49.062066102173965
rfingers 7.125019999999963
rthumb -6.243116707881306 -79.10679515474399
lclavicle 7.862415260458894E-16 8.583601778395773E-16
lhumerus 17.94359913896711 -13.983696025575837 49.53224697243377
lradius 67.42976572248804
lwrist -18.04016912656722
lhand -43.97445658770302 -60.23823401005216
lfingers 7.125019999999957
lthumb -16.805786626131766 -30.798349270554464
rfemur -25.5298701527096 1.5802174584659539 19.98437833419762
rtibia 34.54798660882518
rfoot -30.63034889928487 -17.218867646020335
rtoes -19.52925316129891
lfemur -23.713166435443014 1.3381033685366948 -15.786921603999843
ltibia 36.28495533322344
lfoot -30.027614919352374 7.034511235558241
ltoes -18.188609891962066
127
root 0 0 0 2.885959614767964 -4.2904382334789375 2.105655641039749
lowerback 11.825775948515744 1.1900040438191997 -0.052620662301701704
upperback -4.206501948682569 1.5365518245164145 -0.7873435478908509
thorax -11.09381380625077 0.7061804655399412 -1.1204777849547913
lowerneck -6.978301285364078 1.290212892073255 4.262983385621696
upperneck 19.017421322584102 2.699051082693198 -8.011144202091241
head 7.1070995691679 0.9276494505141174 -3.1157638619023587
rclavicle -1.3245503438558272E-15 -7.217436985334582E-16
rhumerus 17.71212423933425 13.755228833372223 -51.672830692690425
rradius 69.12760541317202
rwrist 23.448195646480023
rhand -32.940054347212424 -48.961458324978814
rfingers 7.125019999999962
rthumb -6.2062201429514285 -79.01259786900103
lclavicle 9.42446650255349E-16 9.902836831208431E-16
lhumerus 17.61564877073821 -13.574394416842585 49.492801063250326
lradius 67.08838458802093
lwrist -18.195840972448774
lhand -43.90640895321602 -60.29129090886326
lfingers 7.125019999999956
lthumb -16.741390984655258 -30.83802721512139
rfemur -23.365077724134423 2.525171170681057 20.459057050721295
rtibia 29.47162014896636
rfoot -29.49138995404647 -16.32767767556787
rtoes -21.314698215646253
lfemur -21.535363356774987 0.1621970404653862 -15.433830267567803
ltibia 31.744043157125706
lfoot -27.371286007518968 6.041823069395252
ltoes -19.5955363763075
128
root 0 0 0 2.8541770928845005 -4.275577530979607 2.11819489646776
lowerback 11.784837437619776 1.1907038743707181 -0.06211551140266769
upperback -4.215911017642613 1.534391603761187 -0.7945893320513439
thorax -11.079174608214855 0.7054717421348833 -1.1206490342341768
lowerneck -6.950975834858019 1.270179844478102 4.264070186369435
upperneck 19.186811918077968 2.6710048292437865 -8.026300522898666
head 7.160113693042207 0.912563954006656 -3.124777427999673
rclavicle -1.1000917052118338E-15 -7.367584388794093E-16
rhumerus 17.293145804509933 13.206486962486418 -51.36971874317406
rradius 68.78920288195518
rwrist 23.794079872262195
rhand -32.91771051907374 -48.95147980692378
rfingers 7.125019999999962
rthumb -6.1822544702669475 -79.01793884261129
lclavicle 9.828411352154174E-16 8.544393758301187E-16
lhumerus 17.38421574150174 -13.204825178362867 49.409888703053234
lradius 66.82281840112815
lwrist -18.377030822865315
lhand -43.874490302298476 -60.475562181364786
lfingers 7.125019999999955
lthumb -16.712144807898415 -31.01765608516475
rfemur -22.953204863471164 2.3132306565578755 19.898929363868827
rtibia 31.51436984324867
rfoot -26.664687909446556 -15.559037600624524
rtoes -21.3493745540306
lfemur -20.189139526848283 -0.05072517573276708 -15.03291564706016
ltibia 32.79889449897404
lfoot -24.28409776597011 4.1707072253467645
ltoes -20.275671622703996
129
root 0 0 0 2.7315606766980007 -4.250595751562833 2.1971252641562606
lowerback 11.795187907658535 1.1743327765116414 -0.126886462566558
upperback -4.219230385655344 1.5034311785790098 -0.8074128568016724
thorax -11.093853705648067 0.6923200482554037 -1.0920860248017459
lowerneck -6.90945986192125 1.2662058189936667 4.275583793790767
upperneck 19.383276609011105 2.66765005286613 -8.074203448496577
head 7.219761457125786 0.9066669073443682 -3.1441279731742258
rclavicle -7.972520484255E-16 -8.954761820233517E-16
rhumerus 16.824889050135567 12.573116033766714 -50.98968786840814
rradius 68.4121070923602
rwrist 24.220916059565468
rhand -32.90187442187539 -48.98822598605476
rfingers 7.125019999999962
rthumb -6.1652279842722795 -79.07487199125518
lclavicle 1.0189312796092138E-15 6.221994398365411E-16
lhumerus 17.20187503341907 -12.842669905672192 49.29781740395238
lradius 66.58919085163177
lwrist -18.580025881174183
lhand -43.86288836613478 -60.74404765086209
lfingers 7.125019999999954
lthumb -16.702485697882185 -31.284263954059337
rfemur -23.937008958408533 1.3190232699970375 18.54836669833659
rtibia 38.41686790982533
rfoot -22.213710440067924 -14.742112940022857
rtoes -20.06171703068605
lfemur -19.041501062948605 0.33927292517558094 -14.616467412125951
ltibia 37.71341902359926
lfoot -20.73177418822459 1.4057492492241073
ltoes -20.853382258842306
